<svg xmlns="http://www.w3.org/2000/svg" width="40" height="40" viewBox="0 0 40 40">
  <g id="Twitter_Social_Icon_Circle_Color" transform="translate(0 -254)">
    <g id="Dark_Blue" transform="translate(0 254)">
      <circle id="Ellipse_6" data-name="Ellipse 6" cx="20" cy="20" r="20"/>
    </g>
    <g id="Logo__x2014__FIXED" transform="translate(37.931 229.943)">
      <path id="Path_8" data-name="Path 8" d="M96.723,133.187c8.452,0,13.074-7.191,13.074-13.424,0-.205,0-.411-.01-.607a9.557,9.557,0,0,0,2.3-2.446,9.137,9.137,0,0,1-2.64.744,4.7,4.7,0,0,0,2.02-2.612,9.159,9.159,0,0,1-2.916,1.145,4.518,4.518,0,0,0-3.354-1.487,4.658,4.658,0,0,0-4.593,4.716,4.434,4.434,0,0,0,.124,1.076,12.926,12.926,0,0,1-9.472-4.931,4.83,4.83,0,0,0-.619,2.368,4.73,4.73,0,0,0,2.049,3.923,4.424,4.424,0,0,1-2.077-.587v.059a4.693,4.693,0,0,0,3.688,4.628,4.468,4.468,0,0,1-1.21.166,4.277,4.277,0,0,1-.867-.088,4.605,4.605,0,0,0,4.288,3.278,9.084,9.084,0,0,1-5.708,2.015,8.14,8.14,0,0,1-1.1-.068,12.562,12.562,0,0,0,7.023,2.133" transform="translate(-118.7 -79.5)" fill="#fff"/>
    </g>
  </g>
</svg>
