<svg xmlns="http://www.w3.org/2000/svg" width="56.069" height="53.785" viewBox="0 0 56.069 53.785">
  <g id="Group_7" data-name="Group 7" transform="translate(-691.048 -131.305)">
    <path id="Path_2" data-name="Path 2" d="M716.207,134.176a2.871,2.871,0,1,1,2.871,2.87A2.872,2.872,0,0,1,716.207,134.176Zm10.591,4.739c-4.519-2.757-7.72,0-7.72,0s-3.2-2.757-7.72,0a13.121,13.121,0,0,0-3.6,5.591s2.1-2.8,3.523-3.408c1.3-.562,3.668-1.443,3.745,2.233a8.776,8.776,0,0,1-3.133,7.3s2.479.141,4.523-3.306a2.7,2.7,0,0,1,5.322,0c2.043,3.447,4.522,3.306,4.522,3.306a8.778,8.778,0,0,1-3.132-7.3c.076-3.676,2.44-2.795,3.745-2.233,1.42.612,3.523,3.408,3.523,3.408A13.131,13.131,0,0,0,726.8,138.915Z" fill="#d74d18"/>
    <path id="Path_3" data-name="Path 3" d="M743.36,149.737a2.87,2.87,0,1,1-1.844,3.616A2.869,2.869,0,0,1,743.36,149.737Zm-1.239,11.536c1.228-5.149-2.383-7.343-2.383-7.343s1.634-3.9-2.383-7.342a13.12,13.12,0,0,0-6.429-1.7s3.309,1.137,4.329,2.3c.938,1.067,2.505,3.044-.968,4.252a8.778,8.778,0,0,1-7.912-.726s.632,2.4,4.54,3.282a3.893,3.893,0,0,1,2.937,1.844,3.894,3.894,0,0,1-1.293,3.217c-2.648,3.008-1.748,5.323-1.748,5.323a8.778,8.778,0,0,1,5.977-5.234c3.52-1.062,3.413,1.458,3.281,2.873-.143,1.539-2.154,4.4-2.154,4.4A13.114,13.114,0,0,0,742.121,161.273Z" fill="#d64789"/>
    <path id="Path_4" data-name="Path 4" d="M736.945,180.364a2.87,2.87,0,1,1-4.009-.637A2.869,2.869,0,0,1,736.945,180.364Zm-11.354,2.386c5.276-.424,6.247-4.535,6.247-4.535s4.211.35,6.247-4.535a13.114,13.114,0,0,0-.371-6.639s-.059,3.5-.849,4.827c-.726,1.222-2.121,3.323-4.343.393a8.78,8.78,0,0,1-1.754-7.749s-2.089,1.343-1.718,5.332a2.7,2.7,0,0,1-4.307,3.126c-3.678-1.588-5.6-.018-5.6-.018a8.781,8.781,0,0,1,6.825,4.069c2.1,3.019-.333,3.7-1.719,4.007-1.508.339-4.853-.688-4.853-.688A13.119,13.119,0,0,0,725.591,182.75Z" fill="#304f9d"/>
    <path id="Path_5" data-name="Path 5" d="M706.11,183.88a2.87,2.87,0,1,1-.68-4A2.871,2.871,0,0,1,706.11,183.88Zm-5.9-9.993c2.091,4.863,6.3,4.466,6.3,4.466s1.016,4.1,6.3,4.467a13.117,13.117,0,0,0,6.171-2.478s-3.334,1.064-4.845.742c-1.39-.3-3.827-.946-1.763-3.989a8.778,8.778,0,0,1,6.779-4.143s-1.94-1.549-5.6.08a2.7,2.7,0,0,1-4.341-3.079c.328-3.994-1.776-5.313-1.776-5.313a8.781,8.781,0,0,1-1.669,7.768c-2.189,2.954-3.608.868-4.347-.345-.8-1.321-.9-4.818-.9-4.818A13.119,13.119,0,0,0,700.214,173.887Z" fill="#43a036"/>
    <path id="Path_6" data-name="Path 6" d="M693.03,155.167a2.87,2.87,0,1,1,3.619-1.84A2.87,2.87,0,0,1,693.03,155.167Zm7.787-8.6c-4.021,3.442-2.391,7.339-2.391,7.339s-3.614,2.19-2.392,7.34a13.123,13.123,0,0,0,4.2,5.155s-2.007-2.866-2.149-4.406c-.13-1.415-.235-3.935,3.284-2.869a8.781,8.781,0,0,1,5.972,5.241s.9-2.313-1.742-5.324a3.9,3.9,0,0,1-1.29-3.219,3.893,3.893,0,0,1,2.939-1.841c3.91-.875,4.544-3.276,4.544-3.276a8.78,8.78,0,0,1-7.913.716c-3.471-1.212-1.9-3.186-.963-4.253,1.022-1.16,4.332-2.293,4.332-2.293A13.116,13.116,0,0,0,700.817,146.567Z" fill="#f7be00"/>
  </g>
</svg>
